<?xml version="1.0" encoding="utf-8"?>
<!-- Generator: Adobe Illustrator 15.0.0, SVG Export Plug-In . SVG Version: 6.00 Build 0)  -->
<!DOCTYPE svg PUBLIC "-//W3C//DTD SVG 1.1//EN" "http://www.w3.org/Graphics/SVG/1.1/DTD/svg11.dtd">
<svg version="1.1"
	 id="svg2" inkscape:version="0.47 r22583" sodipodi:version="0.32" sodipodi:docname="facebook.svg" inkscape:output_extension="org.inkscape.output.svg.inkscape" xmlns:inkscape="http://www.inkscape.org/namespaces/inkscape" xmlns:sodipodi="http://sodipodi.sourceforge.net/DTD/sodipodi-0.dtd" xmlns:rdf="http://www.w3.org/1999/02/22-rdf-syntax-ns#" xmlns:svg="http://www.w3.org/2000/svg" xmlns:cc="http://creativecommons.org/ns#" xmlns:dc="http://purl.org/dc/elements/1.1/"
	 xmlns="http://www.w3.org/2000/svg" xmlns:xlink="http://www.w3.org/1999/xlink" x="0px" y="0px" width="30px" height="30px"
	 viewBox="113 113 30 30" enable-background="new 113 113 30 30" xml:space="preserve">
<title  id="title2910">facebook web</title>
<sodipodi:namedview  pagecolor="#ffffff" bordercolor="#666666" borderopacity="1.0" inkscape:cx="204.60201" inkscape:pageopacity="0.0" inkscape:pageshadow="2" inkscape:zoom="0.98994949" inkscape:cy="64.459739" inkscape:document-units="px" inkscape:current-layer="layer1" inkscape:window-width="682" inkscape:window-height="762" inkscape:window-x="1" showgrid="false" inkscape:window-y="193" inkscape:window-maximized="0" id="base">
	</sodipodi:namedview>
<g id="layer1" transform="translate(-373.642,-318.344)" inkscape:groupmode="layer" inkscape:label="Layer 1">
	
		<path id="rect1942" inkscape:export-filename="C:\Documents and Settings\Molumen\Desktop\path3511111.png" inkscape:export-ydpi="7.7063322" inkscape:export-xdpi="7.7063322" fill="#345891" d="
		M512.201,431.262h-21.035c-2.499,0-4.524,2.026-4.524,4.524v21.034c0,2.499,2.025,4.524,4.524,4.524h21.035
		c2.498,0,4.523-2.025,4.523-4.524v-21.034C516.724,433.288,514.699,431.262,512.201,431.262z"/>
	
		<linearGradient id="path1950_1_" gradientUnits="userSpaceOnUse" x1="-1073.0665" y1="-70.2302" x2="-1079.656" y2="-89.4377" gradientTransform="matrix(-0.5915 0 0 -0.5915 -140.3575 385.3869)">
		<stop  offset="0" style="stop-color:#FFFFFF"/>
		<stop  offset="1" style="stop-color:#FFFFFF;stop-opacity:0"/>
	</linearGradient>
	
		<path id="path1950" inkscape:export-filename="C:\Documents and Settings\Molumen\Desktop\path3511111.png" inkscape:export-ydpi="7.7063322" inkscape:export-xdpi="7.7063322" sodipodi:nodetypes="ccccsssc" opacity="0.3004" fill="url(#path1950_1_)" enable-background="new    " d="
		M508.779,432.548H494.59c-3.755,0-6.777,3.047-6.777,6.835v13.84c0.121,2.957,0.589,1.087,1.479-2.185
		c1.033-3.804,4.401-7.127,8.505-9.618c3.13-1.904,6.634-3.119,13.015-3.233C514.431,438.122,514.109,433.491,508.779,432.548z"/>
	<g id="Layer_3" transform="matrix(1.7982054,0,0,1.8129643,376.63343,326.35613)">
		<path id="path3336" fill="#FFFFFF" d="M72.582,72.64h-2.698v-6.532h-1.348v-2.251h1.348v-1.351c0-1.837,0.761-2.928,2.925-2.928
			h1.8v2.251h-1.125c-0.841,0-0.897,0.315-0.897,0.902l-0.004,1.127h2.04l-0.238,2.251h-1.802V72.64z"/>
	</g>
</g>
</svg>
