<?xml version="1.0" encoding="utf-8"?>
<!-- Generator: Adobe Illustrator 15.0.0, SVG Export Plug-In . SVG Version: 6.00 Build 0)  -->
<!DOCTYPE svg PUBLIC "-//W3C//DTD SVG 1.1//EN" "http://www.w3.org/Graphics/SVG/1.1/DTD/svg11.dtd">
<svg version="1.1"
	 id="svg2" inkscape:version="0.47 r22583" sodipodi:version="0.32" sodipodi:docname="twitter.svg" inkscape:output_extension="org.inkscape.output.svg.inkscape" xmlns:inkscape="http://www.inkscape.org/namespaces/inkscape" xmlns:sodipodi="http://sodipodi.sourceforge.net/DTD/sodipodi-0.dtd" xmlns:rdf="http://www.w3.org/1999/02/22-rdf-syntax-ns#" xmlns:svg="http://www.w3.org/2000/svg" xmlns:cc="http://creativecommons.org/ns#" xmlns:dc="http://purl.org/dc/elements/1.1/"
	 xmlns="http://www.w3.org/2000/svg" xmlns:xlink="http://www.w3.org/1999/xlink" x="0px" y="0px" width="236px" height="234.5px"
	 viewBox="9.5 10.5 236 234.5" enable-background="new 9.5 10.5 236 234.5" xml:space="preserve">
<sodipodi:namedview  pagecolor="#ffffff" bordercolor="#666666" borderopacity="1.0" inkscape:cx="130.38446" inkscape:pageopacity="0.0" inkscape:pageshadow="2" inkscape:zoom="0.35" inkscape:cy="109.08436" inkscape:document-units="px" inkscape:current-layer="layer1" inkscape:window-width="860" inkscape:window-height="716" inkscape:window-x="1" showgrid="false" inkscape:window-y="281" inkscape:window-maximized="0" id="base">
	</sodipodi:namedview>
<g id="layer1" transform="translate(-373.642,-318.344)" inkscape:groupmode="layer" inkscape:label="Layer 1">
	
		<path id="rect1942" inkscape:export-filename="C:\Documents and Settings\Molumen\Desktop\path3511111.png" inkscape:export-ydpi="7.7063322" inkscape:export-xdpi="7.7063322" fill="#9BEBEE" d="
		M583.659,328.849H419.625c-19.599,0-35.487,15.888-35.487,35.487v164.015c0,19.599,15.888,35.486,35.487,35.486h164.033
		c19.599,0,35.487-15.888,35.487-35.486V364.337C619.146,344.738,603.257,328.849,583.659,328.849z"/>
	
		<linearGradient id="path1950_1_" gradientUnits="userSpaceOnUse" x1="-987.7789" y1="153.9739" x2="-1039.4755" y2="3.2849" gradientTransform="matrix(-0.5915 0 0 -0.5915 -140.358 385.3869)">
		<stop  offset="0" style="stop-color:#FFFFFF"/>
		<stop  offset="1" style="stop-color:#FFFFFF;stop-opacity:0"/>
	</linearGradient>
	
		<path id="path1950" inkscape:export-filename="C:\Documents and Settings\Molumen\Desktop\path3511111.png" inkscape:export-ydpi="7.7063322" inkscape:export-xdpi="7.7063322" sodipodi:nodetypes="ccccsssc" fill="url(#path1950_1_)" d="
		M557.056,338.895H446.227c-29.336,0-52.955,23.81-52.955,53.385v108.127c0.95,23.086,4.603,8.491,11.555-17.075
		c8.081-29.713,34.396-55.682,66.445-75.145c24.461-14.855,51.84-24.341,101.679-25.244
		C601.216,382.432,598.721,346.26,557.056,338.895z"/>
	<g id="g13655">
		<path id="path13651" sodipodi:nodetypes="cccc" fill="none" stroke="#157DC3" stroke-width="40" stroke-linecap="round" d="
			M462.928,387.201v85c-0.075,17.762,9.625,34.357,32.143,36.428h43.571"/>
		<path id="path13653" fill="none" stroke="#157DC3" stroke-width="40" stroke-linecap="round" d="M465.071,436.487l75.714,0.714"/>
	</g>
	<g id="g13659">
		<linearGradient id="path13663_1_" gradientUnits="userSpaceOnUse" x1="389.3549" y1="168.2141" x2="388.6411" y2="277.4998">
			<stop  offset="0" style="stop-color:#15A0DD"/>
			<stop  offset="1" style="stop-color:#15A0DD;stop-opacity:0"/>
		</linearGradient>
		<path id="path13663" fill="none" stroke="url(#path13663_1_)" stroke-width="40" stroke-linecap="round" d="M465.071,436.487
			l75.714,0.714 M462.928,387.201v85c-0.075,17.762,9.625,34.357,32.143,36.428h43.571"/>
	</g>
</g>
</svg>
