<?xml version="1.0" encoding="utf-8"?>
<!-- Generator: Adobe Illustrator 15.0.0, SVG Export Plug-In . SVG Version: 6.00 Build 0)  -->
<!DOCTYPE svg PUBLIC "-//W3C//DTD SVG 1.1//EN" "http://www.w3.org/Graphics/SVG/1.1/DTD/svg11.dtd">
<svg version="1.1" id="Calque_1" xmlns="http://www.w3.org/2000/svg" xmlns:xlink="http://www.w3.org/1999/xlink" x="0px" y="0px"
	 width="29.636px" height="25px" viewBox="-3.396 -4.868 29.636 25" enable-background="new -3.396 -4.868 29.636 25"
	 xml:space="preserve">
<g id="Captions">
</g>
<g id="Your_Icon">
	<path fill="#FFFFFF" d="M-3.148,2.637c-0.137-0.131-0.248-0.078-0.248,0.115v14.719c0,0.191,0.112,0.248,0.247,0.112l7.393-7.281
		c0.134-0.132,0.134-0.347-0.004-0.481L-3.148,2.637z"/>
	<path fill="#FFFFFF" d="M25.959,2.637c0.138-0.131,0.246-0.078,0.246,0.115v14.719c0,0.191-0.111,0.248-0.246,0.112l-7.389-7.281
		c-0.135-0.132-0.135-0.347,0.002-0.481L25.959,2.637z"/>
	<path fill="#FFFFFF" d="M17.71,11.316c-0.136-0.13-0.363-0.13-0.502,0l-5.551,5.175c-0.139,0.13-0.366,0.13-0.504,0l-5.551-5.175
		c-0.139-0.13-0.367-0.13-0.502,0l-6.686,6.274c-0.135,0.127-0.099,0.233,0.086,0.233h12.555c0.186,0,0.344,0,0.352,0
		c0.006,0,0.162,0,0.348,0h12.555c0.185,0,0.221-0.106,0.086-0.233L17.71,11.316z"/>
	<path fill="#FFFFFF" d="M11.756,0.819c-0.186,0-0.342,0-0.348,0c-0.007,0-0.166,0-0.352,0H-3.033c-0.186,0-0.223,0.105-0.083,0.234
		l8.605,8.193c0.139,0.129,0.361,0.342,0.5,0.477l0.493,0.468c0.138,0.129,0.365,0.347,0.501,0.478l4.159,3.955
		c0.139,0.135,0.249,0.244,0.249,0.252c0,0.012,0.004,0.015,0.01,0.012c0.005-0.009,0.008-0.009,0.014,0
		c0.004,0.003,0.008,0,0.008-0.012c0-0.008,0.11-0.117,0.248-0.252l4.159-3.955c0.14-0.131,0.363-0.349,0.503-0.478l0.49-0.468
		c0.142-0.135,0.363-0.348,0.505-0.477l8.603-8.193c0.143-0.129,0.1-0.234-0.085-0.234H11.756z"/>
</g>
</svg>
