<?xml version="1.0" encoding="utf-8"?>
<!-- Generator: Adobe Illustrator 15.0.0, SVG Export Plug-In . SVG Version: 6.00 Build 0)  -->
<!DOCTYPE svg PUBLIC "-//W3C//DTD SVG 1.1//EN" "http://www.w3.org/Graphics/SVG/1.1/DTD/svg11.dtd">
<svg version="1.1" xmlns="http://www.w3.org/2000/svg" xmlns:xlink="http://www.w3.org/1999/xlink" x="0px" y="0px" width="250px"
	 height="53px" viewBox="0 0 250 53" enable-background="new 0 0 250 53" xml:space="preserve">
<g id="Calque_2" display="none">
	<rect x="-125" y="-223.5" display="inline" fill="#0000FF" width="500" height="500"/>
</g>
<g id="Calque_1">
	<g>
		<g>
			<path fill="#FFFFFF" d="M69.447,26.853c0,1.587-0.167,2.94-0.484,4.051c-0.322,1.115-0.907,2.137-1.755,3.06
				c-1.001,1.095-2.22,1.943-3.656,2.552c-1.433,0.604-2.915,0.905-4.443,0.905c-1.458,0-2.85-0.288-4.18-0.865
				s-2.505-1.369-3.526-2.378c-1.021-1.012-1.817-2.177-2.395-3.499c-0.576-1.321-0.863-2.699-0.863-4.137
				c0-1.508,0.287-2.933,0.863-4.275c0.578-1.34,1.381-2.52,2.408-3.54c1.028-1.021,2.224-1.812,3.586-2.376
				c1.358-0.568,2.781-0.852,4.274-0.852c1.886,0,3.615,0.434,5.184,1.301c1.569,0.869,2.927,2.097,4.079,3.68l-1.108,0.88
				c-0.959-1.456-2.148-2.582-3.564-3.384c-1.414-0.803-2.976-1.204-4.672-1.204c-1.269,0-2.491,0.259-3.669,0.779
				c-1.182,0.521-2.224,1.231-3.13,2.136c-0.908,0.909-1.616,1.946-2.123,3.119c-0.512,1.17-0.767,2.387-0.767,3.651
				c0,1.305,0.246,2.541,0.75,3.712c0.499,1.171,1.2,2.208,2.093,3.116c0.899,0.907,1.94,1.61,3.118,2.111
				c1.181,0.498,2.422,0.748,3.727,0.748c1.112,0,2.211-0.206,3.299-0.623c1.084-0.414,2.079-0.99,2.989-1.728
				c0.883-0.753,1.528-1.585,1.936-2.494c0.404-0.904,0.629-1.962,0.666-3.17h-7.645v-1.277H69.447z"/>
			<path fill="#FFFFFF" d="M76.269,30.113l-2.861,7.022h-1.385l8.95-22.064l8.923,22.064h-1.387l-2.862-7.022H76.269z
				 M80.972,18.529l-4.19,10.309h8.354L80.972,18.529z"/>
			<path fill="#FFFFFF" d="M95.104,35.86h5.438v1.275h-6.796V15.783h1.358V35.86z"/>
			<path fill="#FFFFFF" d="M105.78,17.055v7.762h8.617v1.273h-8.617v9.77h8.839v1.275h-10.196V15.783h10.196v1.272H105.78z"/>
			<path fill="#FFFFFF" d="M130.763,37.136h-1.558l-6.966-10.111h-0.681v10.111h-1.359V15.783h2.664c1.13,0,2.066,0.059,2.802,0.183
				c0.737,0.123,1.428,0.42,2.067,0.891c0.738,0.512,1.279,1.167,1.632,1.97c0.349,0.803,0.522,1.676,0.522,2.62
				c0,1.793-0.56,3.172-1.673,4.134c-1.116,0.962-2.595,1.445-4.448,1.445L130.763,37.136z M123.286,25.752
				c0.85,0,1.56-0.062,2.14-0.187c0.577-0.121,1.108-0.393,1.6-0.806c0.491-0.4,0.863-0.893,1.118-1.488
				c0.254-0.592,0.384-1.223,0.384-1.882c0-0.832-0.194-1.601-0.583-2.31c-0.388-0.707-0.948-1.222-1.687-1.542
				c-0.432-0.208-0.931-0.339-1.484-0.4c-0.559-0.054-1.338-0.083-2.337-0.083h-0.878v8.697H123.286z"/>
			<path fill="#FFFFFF" d="M136.798,37.136h-1.36V15.783h1.36V37.136z"/>
			<path fill="#FFFFFF" d="M144.163,17.055v7.762h8.609v1.273h-8.609v9.77h8.836v1.275h-10.197V15.783h10.197v1.272H144.163z"/>
			<path fill="#FFFFFF" d="M170.135,17.055v7.762h7.051v1.273h-7.051v11.045h-1.362V15.783h8.612v1.272H170.135z"/>
			<path fill="#FFFFFF" d="M184.12,35.86h5.442v1.275h-6.797V15.783h1.354V35.86z"/>
			<path fill="#FFFFFF" d="M195.538,30.113l-2.861,7.022h-1.388l8.949-22.064l8.925,22.064h-1.388l-2.861-7.022H195.538z
				 M200.238,18.529l-4.189,10.309h8.354L200.238,18.529z"/>
			<path fill="#FFFFFF" d="M224.513,15.783h1.811l-10.449,10.279l11.104,11.074h-1.786L214.936,26.94l-0.563,0.566v9.63h-1.359
				V15.783h1.359v9.97L224.513,15.783z"/>
		</g>
		<g>
			<g>
				<path fill="#FFFFFF" d="M31.882,10.469l6.561,0.1c0.39,0.005,0.932,0.662,0.908,0.969c-0.333,4.213-0.49,8.715-0.555,13.269
					c-0.006,0.423-0.677,0.364-1.064,0.442c-1.95,0.396-4.404,0.244-6.287,0.684c-1.374,0.321-2.689,0.557-3.537,1.235
					c-0.462,0.838-0.566,1.726-0.664,2.728c-0.092,0.95-0.212,1.79-0.228,2.655l-0.013,4.579c0,0.437,0.256,0.891,0.414,1.335
					c0.192,0.538,0.823,0.721,1.322,0.826c0.749,0.155,1.521,0.353,2.334,0.383c1.345,0.052,2.801,0.1,4.067-0.16
					c0.969-1.043,1.45-2.662,1.746-4.437c0.29-1.74,0.725-3.796,0.238-5.662c-0.052-0.207-0.36-0.482-0.521-0.523
					c-2.159-0.555-4.618-0.076-5.594,1.22c-0.323,0.432-0.592,0.877-0.68,1.452c-0.226,1.44-0.298,3.074,0.27,4.345
					c0.761,0.229,1.668,0.053,2.42-0.122c0.372-0.087,0.739-0.625,0.838-0.834c0.492-1.02,0.823-2.135,0.684-3.318
					c-0.046-0.392-0.26-0.798-0.65-0.995c-0.062-0.03-0.373,0-0.467,0c-0.17,0.328-0.429,0.627-0.493,0.989l-0.376,2.218
					c-0.076,0.451-0.671,0.348-0.978,0.22c-0.153-0.062-0.358-0.362-0.28-0.53c0.338-0.745,0.318-1.787,0.619-2.525
					c0.369-0.896,1.4-1.592,2.917-1.153c0.797,0.623,1.364,1.937,0.942,3.65c-0.371,1.509-1.292,2.712-2.486,3.504
					c-0.798,0.528-2.334,0.639-3.443,0.249c-0.314-0.445-0.764-0.892-1.004-1.497c0.171-1.807,0.019-3.801,0.404-5.428
					c0.297-1.251,1.375-1.852,2.467-2.219c2.008-0.671,4.326-0.912,6.678-1.126c0.254-0.022,0.43,0.478,0.428,0.809
					c-0.016,4.407-0.339,8.569-0.529,12.895c-0.009,0.172-0.298,0.468-0.456,0.473l-12.263,0.377
					c-0.188,0.005-0.588-0.152-0.577-0.317c0.324-4.53,0.224-9.639-0.2-13.733c-0.07-0.657-0.437-1.371-1.128-1.372
					c-0.413,0-0.653,0.515-0.67,0.885c-0.199,4.108-0.453,9.344-0.061,13.686c0.013,0.152-0.3,0.528-0.606,0.532
					c-3.715,0.06-8.374,0.185-12.776,0.143C9.38,41.364,9.111,41.07,9.102,40.91c-0.24-4.031-0.491-7.927-0.22-12.007
					c0.017-0.233,0.392-0.566,0.682-0.651c0.684-0.199,1.73-0.259,2.448-0.222c1.35,0.07,2.848-0.115,4.099,0.145
					c1.725,0.354,2.398,2.116,2.363,4.251c-0.02,1.464-0.113,2.988-0.485,4.038c-0.131,0.371-0.505,0.599-0.796,0.649
					c-1.129,0.203-2.666,0.201-4.001,0.147c-0.406-0.017-0.674-0.38-0.801-0.761c-0.401-1.225-0.055-2.978-0.229-4.507
					c-0.034-0.293,0.453-0.798,0.741-0.798h1.903c0.339,0,0.81,0.475,0.921,0.985c0.153,0.709,0.212,1.462,0.281,2.195
					c0.029,0.313-0.766,0.369-1.215,0.312c0-0.3,0.071-1.28,0-1.554c-0.082-0.318-0.182-0.69-0.403-0.762
					c-0.388-0.132-0.783-0.083-0.866,0.248c-0.242,0.95-0.029,1.889,0.173,2.779c0.089,0.381,0.683,0.455,1.096,0.416l1.723-0.181
					c0.188-0.021,0.498-0.305,0.498-0.482v-3.889c0-0.373-0.273-0.839-0.517-1.002c-0.591-0.399-1.229-0.675-2.011-0.727
					l-2.774,0.012c-0.587,0.061-1.049,0.584-1.136,1.158c-0.309,2.026-0.363,4.668,0.016,6.705c0.259,1.389,1.648,2.216,3.334,2.097
					c1.986,0.344,4.711,0.359,6.059-0.607c0.314-0.224,0.463-0.604,0.492-0.928c0.25-2.973,0.497-6.946-0.029-9.848
					c-0.205-1.132-0.932-2.107-2.123-2.114c-0.324-0.001-0.691-0.353-0.801-0.36l-8.364-0.374c-0.131-0.006-0.617-0.699-0.611-0.862
					c0.09-2.592-0.389-4.863-0.365-7.283l-0.054-4.5C8.12,12.3,7.929,11.967,7.984,11.69c0.069-0.327,0.132-0.837,0.615-0.896
					c1.524-0.184,3.628-0.059,5.58-0.08c0.467-0.004,0.238,0.745,0.146,1.096c-0.04,0.156-0.357,0.219-0.595,0.205
					c-1.074-0.068-2.149-0.053-3.01,0.125c-0.63,0.341-1.083,1.123-0.958,1.971c-0.222,1.754-0.148,3.597,0.135,5.682
					c1.175,2.22,3.622,3.54,7.544,3.443l2.037,0.001l1.729-0.383c0.316-0.517,0.754-1.065,0.946-1.727
					c0.32-1.091-0.169-2.137-0.902-2.603c-0.429-0.274-1.452-0.083-1.466-0.522l-0.203-6.308c0.382-0.45,1.074-0.573,1.901-0.432
					c-0.275,1.107-0.162,2.673-0.108,4.086c0.012,0.272,0.273,0.831,0.562,0.98c0.773,0.393,1.546,0.708,2.439,0.834
					c0.563-0.374,1.217-0.809,1.813-1.071c0.294-0.13,0.369-0.905,0.408-1.369c0.1-1.129,0.009-2.246-0.194-3.151
					c-0.039-0.163,0.332-0.449,0.527-0.543c0.091-0.042,0.432-0.042,0.5,0c0.198,0.118,0.534,0.335,0.496,0.543
					c-0.308,1.714-0.337,3.928-0.013,5.6c0.06,0.294-0.157,0.777-0.408,0.813c-1.188,0.175-1.874,1.375-1.87,2.659
					c0.002,0.866,0.662,1.36,1.21,1.72c0.951,0.627,2.059,1.188,3.672,1.061c1.348-0.106,2.782-0.003,3.901-0.46
					c2.005-0.821,3.121-2.769,3.302-5.462c0.118-1.785-0.2-3.428-0.187-4.828c0.001-0.347-0.518-0.537-0.816-0.537l-2.498,0.01
					c-0.441,0.007-0.923,0.18-1.289,0.444c-0.138,0.1-0.497,0.47-0.512,0.558c-0.171,1.05-0.048,1.827-0.021,2.963
					c0.002,0.141,0.25,0.4,0.453,0.464c0.233,0.075,1.01,0.036,1.175-0.032c0.428-0.172,0.757-0.624,0.631-1.075
					c-0.16-0.575,0.049-1.19,0.183-1.708c0.062-0.248,0.384-0.727,0.717-0.527c0.286,0.168,0.695,0.443,0.695,0.68v2.601
					c0,0.196-0.367,0.791-0.481,0.975c-0.732,1.162-2.67,1.934-4.188,1.088c-0.368-0.205-0.645-0.585-0.63-0.956
					c0.083-2.051-0.364-4.013-0.119-5.856c0.047-0.351,0.011-0.792,0.43-1.01C31.383,10.696,31.752,10.467,31.882,10.469z
					 M15.269,11.268c-0.023-0.175,0.137-0.509,0.352-0.438c0.238,0.08,0.529,0.067,0.702,0.19c0.189,0.136,0.26,0.412,0.264,0.37
					c-0.285,2.27-0.06,4.403,0.046,6.294c0.02,0.358-0.521,0.558-0.819,0.558l-3.732-0.016c-0.677-0.053-1.141-0.719-1.164-1.463
					c-0.035-1.048-0.038-2.164,0.197-3.097c0.583-0.549,1.626-0.703,2.63-0.62c0.269,0.021,0.493,0.504,0.493,0.854v1.979
					c0,0.175-0.634,0.397-0.782,0.166c-0.299-0.47-0.274-1.164-0.562-1.604c-0.243-0.366-0.82,0.212-0.809,0.416
					c0.028,0.677-0.173,1.465,0.043,2.053c0.892,0.074,1.852,0.023,2.727,0.034c0.166,0.002,0.45-0.301,0.45-0.464
					C15.306,14.679,15.46,12.789,15.269,11.268z M23.625,11.244c0.327-0.024,0.972-0.259,0.972,0.111v4.403
					c0,0.491-0.943,0.36-1.131,0.178c-0.396-0.387-0.363-0.983-0.165-1.405v-3C23.302,11.421,23.47,11.256,23.625,11.244z"/>
			</g>
		</g>
	</g>
</g>
</svg>
