<?xml version="1.0" encoding="utf-8"?>
<!-- Generator: Adobe Illustrator 15.0.0, SVG Export Plug-In . SVG Version: 6.00 Build 0)  -->
<!DOCTYPE svg PUBLIC "-//W3C//DTD SVG 1.1//EN" "http://www.w3.org/Graphics/SVG/1.1/DTD/svg11.dtd">
<svg version="1.1" xmlns="http://www.w3.org/2000/svg" xmlns:xlink="http://www.w3.org/1999/xlink" x="0px" y="0px" width="180px"
	 height="35px" viewBox="0 0 180 35" enable-background="new 0 0 180 35" xml:space="preserve">
<g id="Calque_2" display="none">
	<rect x="-160" y="-232.5" display="inline" fill="#0000FF" width="500" height="500"/>
</g>
<g id="Calque_1">
	<g>
		<g>
			<path fill="#FFFFFF" d="M55.408,15.938c0,1.177-0.124,2.182-0.359,3.006c-0.239,0.828-0.673,1.586-1.303,2.271
				c-0.743,0.813-1.648,1.443-2.713,1.895c-1.064,0.448-2.164,0.672-3.298,0.672c-1.082,0-2.115-0.213-3.102-0.642
				c-0.988-0.429-1.859-1.017-2.617-1.766c-0.758-0.751-1.349-1.615-1.778-2.597c-0.427-0.98-0.64-2.004-0.64-3.07
				c0-1.119,0.213-2.177,0.64-3.173c0.429-0.995,1.025-1.87,1.787-2.627c0.764-0.758,1.651-1.345,2.663-1.765
				c1.008-0.421,2.063-0.632,3.171-0.632c1.4,0,2.684,0.323,3.848,0.966c1.165,0.645,2.172,1.557,3.028,2.732l-0.823,0.653
				c-0.712-1.08-1.594-1.916-2.645-2.512c-1.049-0.596-2.209-0.893-3.468-0.893c-0.942,0-1.849,0.192-2.724,0.578
				c-0.877,0.386-1.651,0.914-2.323,1.585c-0.674,0.674-1.2,1.445-1.576,2.315c-0.38,0.868-0.569,1.771-0.569,2.709
				c0,0.968,0.183,1.887,0.558,2.756c0.369,0.868,0.89,1.639,1.553,2.312c0.667,0.674,1.439,1.196,2.314,1.566
				c0.876,0.371,1.798,0.556,2.766,0.556c0.825,0,1.641-0.152,2.449-0.462c0.804-0.308,1.542-0.735,2.218-1.282
				c0.656-0.56,1.134-1.177,1.437-1.852c0.3-0.671,0.467-1.456,0.495-2.353h-5.675v-0.947H55.408z"/>
			<path fill="#FFFFFF" d="M60.472,18.356l-2.124,5.212h-1.028l6.642-16.376l6.623,16.376h-1.029l-2.124-5.212H60.472z
				 M63.963,9.759l-3.11,7.651h6.201L63.963,9.759z"/>
			<path fill="#FFFFFF" d="M74.453,22.622h4.036v0.946h-5.044V7.72h1.008V22.622z"/>
			<path fill="#FFFFFF" d="M82.377,8.664v5.762h6.395v0.944h-6.395v7.251h6.561v0.946h-7.568V7.72h7.568v0.944H82.377z"/>
			<path fill="#FFFFFF" d="M100.919,23.568h-1.156l-5.171-7.504h-0.505v7.504h-1.009V7.72h1.978c0.839,0,1.534,0.044,2.08,0.136
				c0.547,0.091,1.06,0.312,1.534,0.661c0.549,0.38,0.949,0.866,1.211,1.462c0.259,0.596,0.388,1.244,0.388,1.944
				c0,1.331-0.415,2.354-1.241,3.068c-0.829,0.714-1.927,1.073-3.302,1.073L100.919,23.568z M95.369,15.12
				c0.631,0,1.158-0.046,1.589-0.138c0.429-0.09,0.823-0.292,1.187-0.599c0.365-0.296,0.642-0.662,0.831-1.104
				c0.188-0.439,0.284-0.908,0.284-1.397c0-0.617-0.145-1.188-0.433-1.714c-0.288-0.525-0.704-0.907-1.252-1.145
				c-0.32-0.155-0.69-0.252-1.102-0.297c-0.414-0.041-0.992-0.062-1.735-0.062h-0.651v6.456H95.369z"/>
			<path fill="#FFFFFF" d="M105.398,23.568h-1.01V7.72h1.01V23.568z"/>
			<path fill="#FFFFFF" d="M110.865,8.664v5.762h6.391v0.944h-6.391v7.251h6.56v0.946h-7.569V7.72h7.569v0.944H110.865z"/>
			<path fill="#FFFFFF" d="M130.142,8.664v5.762h5.234v0.944h-5.234v8.198h-1.011V7.72h6.393v0.944H130.142z"/>
			<path fill="#FFFFFF" d="M140.523,22.622h4.039v0.946h-5.045V7.72h1.006V22.622z"/>
			<path fill="#FFFFFF" d="M148.997,18.356l-2.123,5.212h-1.03l6.643-16.376l6.624,16.376h-1.029l-2.124-5.212H148.997z
				 M152.486,9.759l-3.11,7.651h6.2L152.486,9.759z"/>
			<path fill="#FFFFFF" d="M170.503,7.72h1.345l-7.756,7.629l8.241,8.219h-1.326l-7.611-7.566l-0.419,0.42v7.146h-1.009V7.72h1.009
				v7.4L170.503,7.72z"/>
		</g>
		<g>
			<g>
				<path fill="#FFFFFF" d="M27.527,3.776l4.87,0.074c0.29,0.004,0.691,0.491,0.674,0.72c-0.247,3.127-0.364,6.469-0.412,9.849
					c-0.004,0.313-0.502,0.271-0.79,0.329c-1.447,0.293-3.269,0.181-4.667,0.507c-1.02,0.238-1.997,0.413-2.625,0.917
					c-0.343,0.622-0.42,1.281-0.492,2.024c-0.068,0.705-0.158,1.33-0.169,1.972l-0.009,3.398c0,0.324,0.19,0.661,0.307,0.991
					c0.143,0.399,0.611,0.534,0.981,0.613c0.555,0.114,1.128,0.261,1.732,0.284c0.999,0.038,2.08,0.074,3.019-0.119
					c0.719-0.774,1.076-1.977,1.296-3.293c0.215-1.292,0.538-2.817,0.177-4.203c-0.038-0.152-0.268-0.358-0.387-0.388
					c-1.604-0.412-3.428-0.057-4.153,0.905c-0.24,0.32-0.439,0.651-0.505,1.078c-0.167,1.068-0.221,2.281,0.2,3.225
					c0.564,0.169,1.238,0.039,1.796-0.091c0.276-0.064,0.549-0.465,0.622-0.619c0.365-0.756,0.611-1.585,0.507-2.463
					c-0.034-0.29-0.193-0.592-0.482-0.738c-0.046-0.022-0.277,0-0.347,0c-0.126,0.243-0.319,0.466-0.366,0.734l-0.279,1.646
					c-0.056,0.334-0.498,0.258-0.725,0.162c-0.114-0.047-0.266-0.269-0.208-0.395c0.251-0.553,0.236-1.325,0.459-1.873
					c0.274-0.666,1.04-1.182,2.165-0.856c0.591,0.463,1.012,1.438,0.699,2.709c-0.275,1.12-0.959,2.014-1.845,2.602
					c-0.592,0.392-1.732,0.474-2.555,0.184c-0.233-0.33-0.568-0.661-0.746-1.11c0.127-1.34,0.014-2.821,0.3-4.028
					c0.221-0.929,1.02-1.375,1.831-1.647c1.491-0.497,3.211-0.676,4.957-0.835c0.188-0.017,0.319,0.354,0.317,0.6
					c-0.012,3.272-0.252,6.36-0.393,9.57c-0.007,0.128-0.221,0.347-0.338,0.352l-9.102,0.279c-0.14,0.004-0.437-0.112-0.429-0.235
					c0.241-3.361,0.167-7.155-0.148-10.194c-0.052-0.487-0.325-1.017-0.838-1.018c-0.307,0-0.485,0.382-0.498,0.657
					c-0.147,3.05-0.335,6.935-0.044,10.158c0.009,0.113-0.223,0.392-0.451,0.395c-2.757,0.045-6.215,0.137-9.483,0.106
					c-0.125-0.002-0.325-0.22-0.332-0.339c-0.178-2.992-0.365-5.883-0.164-8.911c0.013-0.174,0.291-0.421,0.506-0.484
					c0.507-0.147,1.284-0.191,1.816-0.164c1.002,0.051,2.114-0.086,3.042,0.107c1.28,0.264,1.78,1.57,1.754,3.154
					c-0.015,1.088-0.083,2.22-0.36,2.999c-0.098,0.274-0.375,0.442-0.591,0.481c-0.838,0.15-1.978,0.149-2.969,0.108
					c-0.302-0.012-0.501-0.282-0.595-0.563c-0.298-0.908-0.041-2.211-0.17-3.346c-0.025-0.217,0.336-0.592,0.55-0.592h1.412
					c0.251,0,0.601,0.352,0.684,0.731c0.114,0.525,0.158,1.085,0.208,1.63c0.022,0.231-0.568,0.272-0.902,0.231
					c0-0.223,0.052-0.95,0-1.153c-0.061-0.236-0.134-0.513-0.299-0.565c-0.289-0.098-0.581-0.062-0.644,0.184
					c-0.179,0.705-0.021,1.402,0.129,2.063c0.066,0.282,0.506,0.337,0.813,0.308l1.278-0.133c0.14-0.016,0.37-0.227,0.37-0.358
					v-2.887c0-0.276-0.203-0.622-0.384-0.743c-0.439-0.296-0.912-0.502-1.493-0.54l-2.059,0.009
					c-0.436,0.045-0.778,0.435-0.843,0.859c-0.229,1.504-0.269,3.465,0.012,4.979c0.192,1.029,1.224,1.644,2.475,1.555
					c1.474,0.256,3.497,0.268,4.497-0.451c0.233-0.165,0.343-0.448,0.365-0.688c0.186-2.207,0.369-5.156-0.021-7.31
					c-0.152-0.84-0.691-1.564-1.576-1.569c-0.24,0-0.513-0.262-0.595-0.267l-6.208-0.277c-0.097-0.005-0.458-0.519-0.454-0.64
					c0.066-1.924-0.289-3.609-0.271-5.406l-0.04-3.34C9.89,5.135,9.748,4.888,9.789,4.682c0.051-0.243,0.098-0.621,0.456-0.664
					c1.132-0.137,2.693-0.044,4.142-0.06c0.346-0.003,0.177,0.552,0.109,0.813c-0.03,0.116-0.265,0.163-0.442,0.153
					c-0.797-0.051-1.595-0.04-2.234,0.092c-0.468,0.253-0.803,0.834-0.711,1.463c-0.165,1.302-0.11,2.67,0.101,4.217
					c0.872,1.648,2.688,2.627,5.6,2.556l1.511,0.001l1.284-0.284c0.235-0.384,0.56-0.791,0.702-1.282
					c0.238-0.81-0.125-1.586-0.669-1.932c-0.318-0.204-1.077-0.062-1.088-0.388l-0.15-4.681c0.283-0.334,0.797-0.425,1.411-0.322
					c-0.205,0.823-0.121,1.985-0.08,3.033c0.009,0.202,0.202,0.617,0.417,0.728c0.575,0.291,1.148,0.525,1.811,0.619
					c0.418-0.278,0.903-0.6,1.345-0.795c0.219-0.097,0.274-0.671,0.303-1.017c0.074-0.838,0.007-1.667-0.144-2.338
					c-0.029-0.122,0.246-0.333,0.391-0.403c0.067-0.032,0.321-0.032,0.372,0c0.146,0.087,0.396,0.249,0.368,0.403
					c-0.229,1.271-0.25,2.915-0.009,4.156c0.044,0.219-0.117,0.576-0.303,0.604c-0.881,0.13-1.391,1.021-1.388,1.974
					c0.001,0.643,0.491,1.009,0.898,1.277c0.706,0.466,1.528,0.881,2.726,0.787c1-0.079,2.064-0.003,2.896-0.342
					c1.489-0.609,2.316-2.056,2.451-4.054c0.087-1.325-0.149-2.545-0.139-3.584c0.001-0.258-0.384-0.398-0.606-0.398l-1.853,0.008
					c-0.328,0.005-0.686,0.134-0.957,0.33c-0.103,0.074-0.369,0.349-0.38,0.414c-0.127,0.78-0.036,1.356-0.016,2.2
					c0.001,0.104,0.186,0.297,0.336,0.345c0.172,0.056,0.749,0.026,0.872-0.024c0.317-0.128,0.562-0.463,0.468-0.799
					c-0.119-0.427,0.037-0.882,0.136-1.267c0.046-0.184,0.285-0.54,0.532-0.392c0.213,0.125,0.516,0.329,0.516,0.505v1.93
					c0,0.146-0.272,0.587-0.357,0.724c-0.543,0.862-1.981,1.436-3.108,0.808c-0.273-0.152-0.479-0.435-0.468-0.71
					c0.062-1.522-0.27-2.979-0.088-4.347c0.035-0.26,0.008-0.587,0.319-0.75C27.156,3.945,27.43,3.775,27.527,3.776z M15.195,4.37
					c-0.017-0.13,0.102-0.378,0.261-0.325c0.177,0.059,0.393,0.05,0.521,0.141c0.141,0.101,0.193,0.306,0.196,0.275
					c-0.211,1.684-0.044,3.267,0.034,4.671c0.015,0.266-0.386,0.414-0.607,0.414L12.83,9.535C12.327,9.495,11.983,9,11.966,8.448
					c-0.027-0.777-0.028-1.605,0.146-2.298c0.433-0.407,1.207-0.521,1.952-0.459c0.199,0.016,0.366,0.374,0.366,0.633v1.469
					c0,0.13-0.471,0.294-0.581,0.123c-0.222-0.348-0.203-0.864-0.417-1.191c-0.18-0.271-0.609,0.158-0.601,0.31
					c0.021,0.502-0.128,1.087,0.032,1.523c0.662,0.055,1.375,0.018,2.024,0.025c0.123,0.001,0.334-0.224,0.334-0.345
					C15.223,6.901,15.337,5.498,15.195,4.37z M21.398,4.352c0.243-0.018,0.722-0.192,0.722,0.083v3.268
					c0,0.364-0.7,0.268-0.84,0.132c-0.294-0.288-0.27-0.729-0.123-1.043V4.564C21.158,4.483,21.283,4.361,21.398,4.352z"/>
			</g>
		</g>
	</g>
</g>
</svg>
